<svg width="417" height="71" viewBox="0 0 417 71" fill="none" xmlns="http://www.w3.org/2000/svg">
<g clip-path="url(#clip0_6_70)">
<path fill-rule="evenodd" clip-rule="evenodd" d="M69.8512 0H34.4933C25.2604 0.248753 16.4892 4.09133 10.0469 10.7098C3.60452 17.3282 -0.000221389 26.1997 1.01979e-08 35.436C1.0198e-08 54.64 15.2392 70.958 34.4432 70.7979C43.1956 70.7238 46.8223 70.7798 48.3394 70.7979H48.6997L48.8418 70.96L64.4172 44.1223L56.4734 28.8812L54.66 32.0575L54.636 32.0435L48.7957 42.1329L39.4289 58.2567C35.1751 59.0049 30.7962 58.5277 26.8034 56.8807C22.8106 55.2337 19.3687 52.485 16.8795 48.9553C14.3902 45.4256 12.9564 41.2607 12.7453 36.9468C12.5343 32.6328 13.5547 28.3478 15.6875 24.592C20.0407 16.9244 26.4774 13.4759 35.2878 13.1336C39.7171 12.9615 51.6438 13.0295 62.4097 13.0315L69.8512 0Z" fill="#2E3192"/>
<path fill-rule="evenodd" clip-rule="evenodd" d="M111.994 71L115.635 58.1266H77.9251L112.124 0H72.9574L65.518 13.0315C77.877 13.0315 89.3014 13.0315 89.3014 13.0315L55.1684 70.7398L111.994 71Z" fill="#ED1C24"/>
<path fill-rule="evenodd" clip-rule="evenodd" d="M28.3608 41.1341H46.2939L53.4151 28.8031H35.3759L28.3608 41.1341Z" fill="#2E3192"/>
<path d="M142.747 40.9139C140.338 40.944 137.946 40.5119 135.699 39.641C133.655 38.8423 131.793 37.6387 130.225 36.1024C128.686 34.5689 127.474 32.7386 126.663 30.7225C125.798 28.5632 125.366 26.2553 125.39 23.9295V23.8334C125.359 20.4757 126.33 17.1851 128.179 14.3821C130.028 11.5791 132.671 9.39116 135.769 8.09792C137.966 7.18535 140.326 6.72845 142.705 6.75493C144.056 6.74498 145.405 6.84741 146.739 7.06116C147.887 7.24914 149.015 7.54122 150.11 7.9338C151.131 8.30367 152.111 8.77786 153.034 9.34883C153.962 9.92632 154.846 10.5733 155.676 11.2843L151.099 16.8123C150.5 16.3012 149.87 15.8286 149.211 15.3973C148.591 14.993 147.935 14.6453 147.252 14.3585C146.542 14.0662 145.804 13.845 145.05 13.698C144.193 13.5344 143.321 13.4553 142.448 13.4618C141.167 13.4531 139.9 13.7364 138.744 14.2905C137.605 14.8331 136.58 15.587 135.723 16.5121C134.846 17.4615 134.158 18.5694 133.696 19.7765C133.201 21.0526 132.953 22.4108 132.963 23.7794V23.8735C132.948 25.3017 133.197 26.7204 133.696 28.0585C134.158 29.2973 134.864 30.4311 135.771 31.393C136.662 32.3364 137.738 33.0858 138.932 33.5946C140.209 34.1274 141.583 34.3924 142.967 34.3732C145.67 34.3732 147.95 33.706 149.808 32.3717V27.6082H142.504V21.3336H156.855V35.6781C155.027 37.2045 152.983 38.4523 150.79 39.3808C148.447 40.4042 145.766 40.9153 142.747 40.9139Z" fill="#231F20"/>
<path d="M177.614 40.8679C173.179 40.8679 169.688 39.641 167.14 37.1872C164.593 34.7334 163.32 31.0688 163.32 26.1932V7.31937H170.585V26.0051C170.585 28.711 171.214 30.7479 172.472 32.1155C173.731 33.4832 175.476 34.167 177.708 34.167C179.942 34.167 181.688 33.5065 182.946 32.1856C184.204 30.8646 184.833 28.8832 184.833 26.2412V7.31937H192.101V25.957C192.101 28.4749 191.762 30.6611 191.086 32.5158C190.478 34.2623 189.486 35.8503 188.184 37.1632C186.89 38.428 185.325 39.3802 183.606 39.9473C181.673 40.5824 179.649 40.8934 177.614 40.8679Z" fill="#231F20"/>
<path d="M199.508 7.31937H206.773V33.7908H223.24V40.3476H199.508V7.31937Z" fill="#231F20"/>
<path d="M228.714 7.31937H253.862V13.8782H235.973V21.0034H251.732V27.5622H235.973V40.3476H228.708L228.714 7.31937Z" fill="#231F20"/>
<path d="M272.828 34.8255L290.993 13.69H273.4V7.31937H300.342V12.8414L282.177 33.9789H300.342V40.3476H272.828V34.8255Z" fill="#231F20"/>
<path d="M323.267 40.914C320.855 40.9411 318.463 40.4837 316.232 39.569C314.168 38.7233 312.287 37.4902 310.688 35.9363C309.127 34.4062 307.892 32.5771 307.055 30.5584C306.182 28.4581 305.741 26.2038 305.758 23.9295V23.8335C305.742 21.5569 306.191 19.301 307.079 17.2046C307.941 15.1542 309.2 13.2942 310.783 11.7315C312.366 10.1687 314.242 8.93391 316.304 8.09793C320.827 6.30732 325.863 6.30732 330.386 8.09793C332.449 8.94503 334.331 10.1787 335.93 11.7326C337.49 13.2631 338.726 15.0921 339.565 17.1105C340.437 19.2109 340.878 21.4652 340.862 23.7394V23.8335C340.878 26.1107 340.428 28.3672 339.541 30.4643C338.679 32.5147 337.42 34.3746 335.837 35.9371C334.254 37.4995 332.377 38.7338 330.316 39.569C328.079 40.4812 325.682 40.9385 323.267 40.914ZM323.361 34.2151C324.736 34.2281 326.099 33.9555 327.364 33.4145C328.554 32.9051 329.623 32.1493 330.5 31.1968C331.373 30.239 332.062 29.1274 332.53 27.9184C333.021 26.6472 333.269 25.2946 333.26 23.9315V23.8355C333.267 22.4673 333.02 21.1098 332.53 19.8325C332.065 18.6055 331.36 17.4833 330.457 16.5314C329.554 15.5795 328.471 14.8171 327.27 14.2885C326.009 13.7315 324.645 13.4497 323.267 13.4619C321.88 13.4429 320.506 13.7156 319.232 14.2624C318.05 14.7756 316.989 15.5311 316.117 16.4801C315.244 17.4375 314.556 18.5493 314.09 19.7585C313.597 21.0293 313.348 22.3821 313.357 23.7454V23.8395C313.35 25.2078 313.598 26.5654 314.09 27.8424C314.557 29.0696 315.262 30.1921 316.166 31.1448C317.063 32.0902 318.137 32.8516 319.326 33.3864C320.595 33.9536 321.971 34.2397 323.361 34.2251V34.2151Z" fill="#231F20"/>
<path d="M347.328 7.31937H354.029L369.505 27.6563V7.31937H376.676V40.3436H370.495L354.502 19.3482V40.3436H347.328V7.31937Z" fill="#231F20"/>
<path d="M384.604 7.31937H409.468V13.7841H391.775V20.485H407.344V26.9477H391.775V33.8848H409.7V40.3476H384.604V7.31937Z" fill="#231F20"/>
<path d="M134.803 65.488C133.855 65.5005 132.914 65.3306 132.031 64.9876C131.23 64.6798 130.501 64.2098 129.89 63.6071C129.279 63.0044 128.799 62.2819 128.48 61.485C128.141 60.6362 127.971 59.7292 127.98 58.8151V58.7791C127.967 57.4595 128.348 56.1662 129.075 55.0647C129.802 53.9632 130.841 53.1038 132.059 52.5965C132.921 52.2372 133.848 52.0574 134.783 52.0681C135.313 52.0643 135.844 52.1045 136.368 52.1882C136.819 52.2614 137.263 52.3766 137.693 52.5325C138.094 52.6774 138.48 52.8631 138.844 53.0869C139.208 53.3143 139.554 53.5686 139.88 53.8474L138.079 56.017C137.844 55.8157 137.596 55.6299 137.337 55.4606C137.093 55.3047 136.836 55.1707 136.568 55.0603C136.29 54.9457 136.001 54.8585 135.705 54.8001C135.37 54.7369 135.028 54.7061 134.687 54.7081C134.183 54.7043 133.685 54.8159 133.232 55.0343C132.784 55.2471 132.381 55.5433 132.045 55.907C131.699 56.2798 131.427 56.7153 131.244 57.1899C131.05 57.69 130.952 58.2225 130.956 58.759V58.7951C130.95 59.3565 131.048 59.9142 131.244 60.4403C131.426 60.9266 131.703 61.3716 132.059 61.7492C132.409 62.1201 132.832 62.4145 133.302 62.6139C133.804 62.8231 134.343 62.9273 134.887 62.9201C135.844 62.9521 136.785 62.6772 137.575 62.1355V60.2702H134.709V57.7963H140.345V63.4305C139.627 64.0303 138.824 64.5206 137.963 64.8855C136.963 65.303 135.887 65.5081 134.803 65.488Z" fill="#231F20"/>
<path d="M143.087 52.2903H152.856V54.8402H145.907V57.4621H152.025V60.002H145.907V62.726H152.952V65.2658H143.087V52.2903Z" fill="#231F20"/>
<path d="M155.514 52.2903H158.146L164.226 60.2802V52.2903H167.044V65.2658H164.609L158.326 57.0178V65.2658H155.514V52.2903Z" fill="#231F20"/>
<path d="M170.151 52.2903H179.92V54.8402H172.969V57.4621H179.087V60.002H172.969V62.726H180.014V65.2658H170.151V52.2903Z" fill="#231F20"/>
<path d="M182.572 52.2903H188.502C190.147 52.2903 191.408 52.7293 192.285 53.6073C193.025 54.3478 193.396 55.3365 193.396 56.5734V56.6095C193.396 57.6609 193.139 58.5169 192.627 59.1774C192.111 59.8418 191.417 60.3463 190.626 60.6324L193.796 65.2658H190.449L187.669 61.1148H185.426V65.2658H182.572V52.2903ZM188.318 58.5929C189.022 58.5929 189.563 58.4261 189.939 58.0926C190.126 57.9256 190.274 57.7193 190.372 57.4885C190.47 57.2577 190.515 57.0081 190.506 56.7576V56.7216C190.506 56.1038 190.305 55.6401 189.905 55.3305C189.505 55.021 188.955 54.8669 188.256 54.8682H185.426V58.5929H188.318Z" fill="#231F20"/>
<path d="M200.423 52.1982H203.055L208.615 65.2658H205.631L204.444 62.3557H198.958L197.771 65.2658H194.861L200.423 52.1982ZM203.425 59.8358L201.702 55.6328L199.976 59.8358H203.425Z" fill="#231F20"/>
<path d="M210.616 52.2903H213.472V62.6979H219.941V65.2738H210.616V52.2903Z" fill="#231F20"/>
<path d="M230.673 54.9222H226.726V52.2903H237.476V54.9222H233.529V65.2658H230.673V54.9222Z" fill="#231F20"/>
<path d="M239.664 52.2903H245.596C247.24 52.2903 248.5 52.7293 249.377 53.6073C250.12 54.3478 250.491 55.3365 250.489 56.5734V56.6095C250.489 57.6609 250.233 58.5169 249.721 59.1774C249.204 59.8409 248.51 60.3452 247.719 60.6324L250.888 65.2658H247.541L244.761 61.1148H242.518V65.2658H239.664V52.2903ZM245.41 58.5929C246.114 58.5929 246.655 58.4261 247.033 58.0926C247.22 57.9255 247.367 57.7192 247.465 57.4884C247.562 57.2575 247.608 57.008 247.597 56.7576V56.7216C247.597 56.1038 247.397 55.6401 246.997 55.3305C246.597 55.021 246.046 54.8669 245.346 54.8682H242.518V58.5929H245.41Z" fill="#231F20"/>
<path d="M257.515 52.1982H260.147L265.709 65.2658H262.724L261.538 62.3557H256.05L254.865 65.2658H251.955L257.515 52.1982ZM260.517 59.8358L258.794 55.6328L257.07 59.8358H260.517Z" fill="#231F20"/>
<path d="M267.71 52.2903H272.77C273.722 52.2795 274.669 52.4465 275.56 52.7826C276.372 53.0877 277.115 53.5502 277.747 54.1436C278.357 54.7216 278.84 55.4194 279.166 56.1931C279.504 56.9999 279.674 57.8666 279.667 58.741V58.779C279.674 59.6566 279.503 60.5265 279.166 61.3369C278.842 62.1141 278.359 62.815 277.747 63.3944C277.114 63.9889 276.371 64.4546 275.56 64.7654C274.67 65.1072 273.723 65.277 272.77 65.2658H267.71V52.2903ZM272.77 62.6979C273.316 62.7053 273.859 62.611 274.371 62.4197C274.835 62.245 275.256 61.9719 275.604 61.6191C275.948 61.2669 276.22 60.8508 276.404 60.3942C276.603 59.8931 276.701 59.3579 276.693 58.8191V58.783C276.698 58.2438 276.6 57.7084 276.404 57.2059C276.223 56.7432 275.95 56.3214 275.604 55.965C275.254 55.6147 274.833 55.342 274.371 55.1644C273.86 54.9674 273.317 54.8702 272.77 54.8782H270.568V62.6999L272.77 62.6979Z" fill="#231F20"/>
<path d="M282.335 52.2903H285.191V65.2658H282.335V52.2903Z" fill="#231F20"/>
<path d="M288.433 52.2903H291.067L297.146 60.2802V52.2903H299.964V65.2658H297.536L291.251 57.0178V65.2658H288.433V52.2903Z" fill="#231F20"/>
<path d="M309.325 65.488C308.378 65.5005 307.437 65.3306 306.555 64.9876C305.753 64.6805 305.024 64.2108 304.413 63.608C303.802 63.0052 303.322 62.2823 303.004 61.485C302.664 60.6364 302.494 59.7292 302.504 58.8151V58.779C302.491 57.4599 302.872 56.1669 303.599 55.0656C304.325 53.9642 305.363 53.1046 306.581 52.5965C307.444 52.2374 308.371 52.0576 309.307 52.0681C309.837 52.0643 310.368 52.1045 310.892 52.1882C311.343 52.2618 311.787 52.377 312.217 52.5325C312.618 52.6769 313.003 52.8627 313.366 53.0869C313.73 53.3148 314.077 53.569 314.404 53.8474L312.603 56.017C312.368 55.8157 312.12 55.6299 311.86 55.4606C311.616 55.3055 311.359 55.1716 311.092 55.0603C310.813 54.9459 310.524 54.8588 310.229 54.8001C309.893 54.7369 309.552 54.7061 309.21 54.7081C308.707 54.704 308.209 54.8156 307.755 55.0343C307.308 55.2471 306.905 55.5432 306.569 55.9069C306.222 56.2794 305.95 56.7149 305.768 57.1899C305.574 57.69 305.476 58.2225 305.48 58.759V58.7951C305.474 59.3565 305.572 59.9142 305.768 60.4403C305.949 60.927 306.226 61.3722 306.583 61.7492C306.933 62.1201 307.356 62.4145 307.825 62.6138C308.327 62.8234 308.867 62.9276 309.411 62.9201C310.367 62.9524 311.308 62.6774 312.097 62.1355V60.2701H309.226V57.7963H314.861V63.4304C314.143 64.0307 313.34 64.5211 312.479 64.8855C311.48 65.3023 310.406 65.5075 309.325 65.488Z" fill="#231F20"/>
<path d="M322.542 58.1666H328.25V60.8726H322.542V58.1666Z" fill="#231F20"/>
<path d="M340.93 65.4479C339.938 65.4474 338.953 65.2747 338.02 64.9376C337.057 64.5946 336.172 64.0624 335.418 63.3724L337.105 61.3509C337.662 61.8101 338.275 62.1962 338.93 62.4998C339.575 62.7882 340.274 62.9337 340.98 62.9261C341.462 62.9536 341.941 62.841 342.361 62.6019C342.514 62.5085 342.641 62.3762 342.727 62.2184C342.813 62.0606 342.856 61.8829 342.851 61.7032V61.6672C342.855 61.4975 342.82 61.3291 342.749 61.1748C342.656 61.0067 342.517 60.8681 342.349 60.7745C342.096 60.6227 341.828 60.4985 341.548 60.4042C341.205 60.2802 340.762 60.1501 340.219 60.014C339.614 59.8696 339.018 59.6905 338.434 59.4776C337.947 59.3041 337.489 59.057 337.077 58.745C336.708 58.4565 336.412 58.0848 336.214 57.6602C335.993 57.152 335.888 56.601 335.906 56.0471V56.011C335.897 55.4593 336.011 54.9125 336.238 54.4099C336.456 53.9368 336.774 53.5162 337.169 53.177C337.588 52.8183 338.074 52.5462 338.598 52.3764C339.19 52.1865 339.808 52.0932 340.429 52.1002C341.322 52.0904 342.21 52.2347 343.053 52.5265C343.85 52.8083 344.595 53.2216 345.255 53.7494L343.772 55.8989C343.237 55.5295 342.665 55.2156 342.067 54.9623C341.539 54.7398 340.972 54.6235 340.399 54.62C339.843 54.62 339.425 54.7281 339.148 54.9442C339.02 55.0349 338.915 55.1548 338.843 55.294C338.77 55.4332 338.731 55.5878 338.73 55.7448V55.7829C338.725 55.972 338.767 56.1595 338.85 56.3293C338.954 56.5065 339.106 56.6508 339.289 56.7456C339.562 56.8963 339.852 57.0145 340.153 57.0978C340.517 57.2099 340.98 57.34 341.536 57.4981C342.135 57.6509 342.722 57.8455 343.293 58.0805C343.764 58.2722 344.203 58.5347 344.594 58.8591C344.938 59.1502 345.212 59.5148 345.395 59.9259C345.586 60.3902 345.678 60.8891 345.665 61.391V61.427C345.676 62.0176 345.557 62.6033 345.315 63.1423C345.091 63.632 344.756 64.0635 344.338 64.4032C343.895 64.7563 343.388 65.0207 342.845 65.1817C342.223 65.365 341.578 65.4547 340.93 65.4479Z" fill="#231F20"/>
<path d="M353.719 52.2903H359.021C359.73 52.279 360.435 52.3887 361.107 52.6145C361.684 52.8098 362.214 53.1226 362.664 53.5332C363.09 53.9286 363.426 54.4121 363.646 54.9503C363.88 55.53 363.997 56.1505 363.989 56.7756V56.8136C364.005 57.4964 363.868 58.1741 363.588 58.7971C363.327 59.3518 362.943 59.8398 362.466 60.2241C361.971 60.6174 361.405 60.9104 360.798 61.0867C360.133 61.2824 359.442 61.3788 358.749 61.373H356.581V65.2658H353.719V52.2903ZM358.837 58.8351C359.553 58.8351 360.11 58.645 360.504 58.2687C360.698 58.0912 360.852 57.8744 360.955 57.6328C361.059 57.3913 361.11 57.1304 361.105 56.8677V56.8416C361.105 56.1998 360.897 55.7121 360.482 55.3786C360.067 55.045 359.502 54.8782 358.787 54.8782H356.585V58.8431L358.837 58.8351Z" fill="#231F20"/>
<path d="M371.672 52.2903H374.526V62.6979H380.995V65.2738H371.672V52.2903Z" fill="#231F20"/>
<path d="M382.73 62.2996H385.715V65.2658H382.73V62.2996Z" fill="#231F20"/>
<path d="M388.439 52.2903H391.287V62.6979H397.755V65.2738H388.431L388.439 52.2903Z" fill="#231F20"/>
<path d="M399.505 62.2996H402.495V65.2658H399.511L399.505 62.2996Z" fill="#231F20"/>
<path d="M411.301 65.488C410.391 65.4966 409.489 65.3202 408.649 64.9696C407.859 64.6397 407.141 64.1583 406.536 63.5525C405.937 62.9431 405.465 62.2215 405.147 61.429C404.81 60.599 404.64 59.7108 404.646 58.8151V58.779C404.632 57.0134 405.31 55.3125 406.536 54.0416C407.143 53.4223 407.867 52.931 408.667 52.5965C409.537 52.2362 410.47 52.0565 411.411 52.0681C411.968 52.0639 412.524 52.1135 413.071 52.2162C413.537 52.3027 413.994 52.4368 414.434 52.6165C414.833 52.7839 415.212 52.9953 415.564 53.247C415.907 53.4911 416.23 53.7636 416.527 54.0616L414.704 56.1651C414.24 55.7363 413.719 55.3745 413.155 55.0903C412.603 54.8242 411.997 54.6905 411.385 54.7001C410.865 54.6955 410.349 54.8034 409.874 55.0163C409.417 55.2193 409.008 55.5159 408.673 55.8869C408.335 56.2637 408.071 56.7011 407.895 57.1759C407.707 57.6761 407.612 58.2066 407.617 58.741V58.779C407.613 59.3166 407.707 59.8504 407.895 60.3542C408.068 60.8305 408.329 61.2703 408.663 61.6512C409.003 62.0346 409.422 62.3403 409.89 62.5475C410.359 62.7547 410.867 62.8586 411.379 62.852C412.03 62.8735 412.675 62.7361 413.261 62.4517C413.816 62.1487 414.33 61.7746 414.79 61.3389L416.607 63.1743C416.285 63.5206 415.938 63.8424 415.568 64.137C414.817 64.7356 413.934 65.1472 412.992 65.3379C412.435 65.4441 411.869 65.4944 411.301 65.488Z" fill="#231F20"/>
</g>
<defs>
<clipPath id="clip0_6_70">
<rect width="416.615" height="71" fill="white"/>
</clipPath>
</defs>
</svg>
